<?xml version="1.0" encoding="UTF-8" standalone="no"?>
<!DOCTYPE svg PUBLIC "-//W3C//DTD SVG 1.1//EN" "http://www.w3.org/Graphics/SVG/1.1/DTD/svg11.dtd">
<svg xmlns="http://www.w3.org/2000/svg" xmlns:xlink="http://www.w3.org/1999/xlink" version="1.1" width="256" height="256" viewBox="-6 -6 77 77">
<desc>Created with SVGMaker Editor 2.2.3</desc>
<defs>
</defs>
<g transform="matrix(0.2676 0 0 0.2676 32.9328 32.9328)">
<g transform="translate(0,0)" style="">
<g transform="matrix(4.2062 0 0 4.2062 24.1751 0.531)">
<g transform="translate(0,0)" style="">
<rect transform="translate(0,0)" style="stroke: rgb(255,105,0); stroke-width: 1.92; fill: none" x="-23.5" y="-19.5" rx="2" ry="2" width="47" height="39"/>
<line transform="translate(0,0)" style="stroke: rgb(255,105,0); stroke-width: 1.92; fill: none" x1="-23.5" y1="-11.12" x2="23.5" y2="-11.12"/>
<path transform="translate(0,0)" style="stroke: rgb(255,105,0); stroke-width: 1.92; fill: none" stroke-linecap="round" d="M-3.94-1.58L-3.94 9.7C-3.94 9.8894-3.833 10.0625-3.6636 10.1472-3.4942 10.2319-3.2915 10.2136-3.14 10.1L6.15 4.4C6.296 4.3007 6.3773 4.1306 6.3628 3.9546 6.3483 3.7786 6.2403 3.6241 6.08 3.55L-3.21-2C-3.3617-2.0732-3.5398-2.0667-3.6859-1.9827-3.8319-1.8987-3.927-1.748-3.94-1.58Z"/>
<line transform="translate(0,0)" style="stroke: rgb(255,105,0); stroke-width: 1.92; fill: none" x1="-21.5" y1="-19.5" x2="-14.67" y2="-11.12"/>
<line transform="translate(0,0)" style="stroke: rgb(255,105,0); stroke-width: 1.92; fill: none" x1="-14.59" y1="-19.5" x2="-7.76" y2="-11.12"/>
<line transform="translate(0,0)" style="stroke: rgb(255,105,0); stroke-width: 1.92; fill: none" x1="-7.62" y1="-19.5" x2="-0.79" y2="-11.12"/>
<line transform="translate(0,0)" style="stroke: rgb(255,105,0); stroke-width: 1.92; fill: none" x1="-0.23" y1="-19.5" x2="6.6" y2="-11.12"/>
<line transform="translate(0,0)" style="stroke: rgb(255,105,0); stroke-width: 1.92; fill: none" x1="7.15" y1="-19.5" x2="13.98" y2="-11.12"/>
<line transform="translate(0,0)" style="stroke: rgb(255,105,0); stroke-width: 1.92; fill: none" x1="14.67" y1="-19.5" x2="21.5" y2="-11.12"/>
</g>
</g>
<g transform="matrix(0.3081 0 0 0.3081 0 0)">
<g transform="translate(0,0)" style="">
<path transform="translate(0,0)" style="stroke: rgb(0,0,0); stroke-width: 0.0102; fill: rgb(0,0,0)" stroke-linecap="round" d="M0 384C212.0773 384 384 212.0773 384 0 384-212.0773 212.0773-384 0-384-212.0773-384-384-212.0773-384 0-384 212.0773-212.0773 384 0 384ZM0 448C-247.4236 448-448 247.4236-448 0-448-247.4236-247.4236-448 0-448 247.4236-448 448-247.4236 448 0 448 247.4236 247.4236 448 0 448Z"/>
<path transform="translate(0,0)" style="stroke: rgb(0,0,0); stroke-width: 0.0102; fill: rgb(0,0,0)" stroke-linecap="round" d="M0-416C17.6731-416 32-401.6731 32-384L32-192C32-174.3269 17.6731-160 0-160-17.6731-160-32-174.3269-32-192L-32-384C-32-401.6731-17.6731-416 0-416ZM0 160C17.6731 160 32 174.3269 32 192L32 384C32 401.6731 17.6731 416 0 416-17.6731 416-32 401.6731-32 384L-32 192C-32 174.3269-17.6731 160 0 160ZM-416 0C-416-17.6731-401.6731-32-384-32L-192-32C-174.3269-32-160-17.6731-160 0-160 17.6731-174.3269 32-192 32L-384 32C-401.6731 32-416 17.6731-416 0ZM160 0C160-17.6731 174.3269-32 192-32L384-32C401.6731-32 416-17.6731 416 0 416 17.6731 401.6731 32 384 32L192 32C174.3269 32 160 17.6731 160 0Z"/>
</g>
</g>
</g>
</g>
</svg>